# xmcd CD database file
#
# Track frame offsets:
#	150
#	28132
#	47921
#	78243
#	103445
#	137694
#	165761
#	193808
#	219617
#	236821
#
# Disc length: 3717 seconds
#
# Revision: 0
# Processed by: cddbd v1.5.1PL0 Copyright (c) Steve Scherf et al.
# Submitted via: CDex 1.50beta10
#
DISCID=8c0e830a
DTITLE=Three-Fifths Compromise - Cheaper Than Therapy
DYEAR=2003
DGENRE=Jazz
TTITLE0=Big Trouble in Little China
TTITLE1=High Times
TTITLE2=Moviemiento En Azul
TTITLE3=Measuring The Restless Skies
TTITLE4=Spanish
TTITLE5=Pink Panther
TTITLE6=Mohammed S
TTITLE7=Pop Goes The Medley
TTITLE8=Journey 2 Infinity By 2s
TTITLE9=Cheaper Than Therapy
EXTD=YEAR: 2003
EXTT0=
EXTT1=
EXTT2=
EXTT3=
EXTT4=
EXTT5=
EXTT6=
EXTT7=
EXTT8=
EXTT9=
PLAYORDER=
